
<global>
amp_veltrack=0
ampeg_release=0.35
</global>

<group>
amp_veltrack=0
group_label=PP
lpc_hicc1=42
lpc_locc1=0

<region>
hikey=a#2
hivel=127
lokey=a2
loop_end=238846
loop_mode=loop_continuous
loop_start=76823
loop_xfade=19396
lovel=1
lpc=zpxVQr4dGcOvfjFDPg7ywulqikIPTRXCjD9sQStqTcEcMLJBfvC+wRfgsUHfrorBCrXOQBhi/EAor57Bhii0QdhhjME2Bk5B3WBbwbEHTkFMP97AzBrMPwQeFz82WY2+
lpc_rms=-28.51
offset=3736
pitch_keycenter=a#2
sample=Baritone_accent_PP_A#2.opus
tune=-5
</region>

<region>
hikey=a#3
hivel=127
lokey=a3
loop_end=240927
loop_mode=loop_continuous
loop_start=77492
loop_xfade=19566
lovel=1
lpc=1LkhQp8f08Itss9CEuFwwg64JUKCBObBtLtwQcvsi8GF4aNBM+CQwVdRhkEIsATBIUQgPqndtkBiSFPBQJ9QQUItK8HwaE5BL/JEwUrAykDvfbu/A6S2v85MA0Aogqe+
lpc_rms=-31.25
offset=4257
pitch_keycenter=a#3
sample=Baritone_accent_PP_A#3.opus
tune=-9
</region>

<region>
hikey=B4
hivel=127
lokey=a4
loop_end=238212
loop_mode=loop_continuous
loop_start=76619
loop_xfade=19345
lovel=1
lpc=OjpcQuZ6AcMMHexCO0iVwp/5YUJeoOfBBZmdQW83EsLCAQlCGD/AwU8LikE1gfTAg7RWQATCk0D49GPBMXlQQclSk8BhxxNAKMMrwbaSe0HHczfBMEQ0QbcBM8GWx61A
lpc_rms=-26.68
offset=7326
pitch_keycenter=A#4
sample=Baritone_accent_PP_A#4.opus
tune=+32
</region>

<region>
hivel=127
key=c2
loop_end=271910
loop_mode=loop_continuous
loop_start=87458
loop_xfade=22082
lovel=1
lpc=Z2UgQq6A3sIIT/1CUBK5wrcYgEKtHwvCMlVpQFuZBEA1eC1BCWZuwWZYikABzoFAJ55SPxeCf8AiY9A/mPpJwKhpy0DSOKzAqQaPQDUWAcEBFgdBEdWGwEoCLkBNz9e/
lpc_rms=-31.16
offset=6623
sample=Baritone_accent_PP_C2.opus
tune=-1
</region>

<region>
hikey=c3
hivel=127
lokey=b2
loop_end=240494
loop_mode=loop_continuous
loop_start=77353
loop_xfade=19530
lovel=1
lpc=6izmQYdio8KeHMFC8waPwsdrSkJadQ7CoVKDQdu9CcEPxVNBU9YwwYloKkDncwvAFjSNQLijLUDAE0HBdDJkQRFfGMGIEmhAFCUEvxgBCcBHroVAGQc8wGCREz8n6EA+
lpc_rms=-30.69
offset=5772
pitch_keycenter=c3
sample=Baritone_accent_PP_C3.opus
tune=-9
</region>

<region>
hikey=c4
hivel=127
lokey=b3
loop_end=264014
loop_mode=loop_continuous
loop_start=84918
loop_xfade=21440
lovel=1
lpc=fvc3QuSkAMO6/whDjaWlwrfLg0LUrYDCvZ8DQpu6Z8GrbbdBGu6xweoOBEGJYsq/xh4sQGKw/EBavpDB1ZXWQDsPukAk9qW/mOnEv5EcRcAjPwZA6YAFQLlRCcCqSNc+
lpc_rms=-29.57
offset=2956
pitch_keycenter=c4
sample=Baritone_accent_PP_C4.opus
tune=-5
</region>

<region>
hikey=d2
hivel=127
lokey=c#2
loop_end=251919
loop_mode=loop_continuous
loop_start=81028
loop_xfade=20458
lovel=1
lpc=h8JeQu8uHcOmKzdDoygGw+DopUJakhrCcLNGQYJJkcFQ2uBBp/nLwY07aEFOu1RA7ZhUwczkY0Gxoh3BMk2VP77Gm0Ab4fHAVicPQW13VMGPwZdBj1lxwdbBn0AVuJK+
lpc_rms=-28.83
offset=537
pitch_keycenter=d2
sample=Baritone_accent_PP_D2.opus
tune=-5
</region>

<region>
hikey=d3
hivel=127
lokey=c#3
loop_end=227496
loop_mode=loop_continuous
loop_start=73172
loop_xfade=18475
lovel=1
lpc=VgczQs628sIlAgpDPITLwrvnf0JcTO/BCIcoQameosF78etBIbGewT60RkEnPgvB2XHSP5QICUEh/27BjvdtQQ9cE8FYPv++XT/WQEgtBsEdXMFAQx5ywJHe2T/7/eg+
lpc_rms=-29.68
offset=5532
pitch_keycenter=d3
sample=Baritone_accent_PP_D3.opus
tune=+4
</region>

<region>
hikey=d4
hivel=127
lokey=c#4
loop_end=285915
loop_mode=loop_continuous
loop_start=91962
loop_xfade=23219
lovel=1
lpc=qpzJQpNHcMP4/0hDS8DewrEK0kIi74rCEbzzQSGnIcJdQghCNfa5wX8KwUEGM2HBUG0iQUrgGkGGwNPB85VRQflBQMEgZ2dB+imswL7Uxr+ecidBmetvwaiy6j8pBLJA
lpc_rms=-27.01
offset=3800
pitch_keycenter=d4
sample=Baritone_accent_PP_D4.opus
tune=-7
</region>

<region>
hikey=e2
hivel=127
lokey=d#2
loop_end=247897
loop_mode=loop_continuous
loop_start=79734
loop_xfade=20132
lovel=1
lpc=YvWQQirKTcNO+WRD7HsXw61izUIml4vC0FznQdJQW8GNXoZBiVa7wdbD0EH7tIfB2TNKQcz2k8BTbvfAFn8FQX1WUsB9ko3AAL6LQQrc78FF1v5BFT2qwULQ7EAcQgC/
lpc_rms=-26.74
offset=4594
pitch_keycenter=e2
sample=Baritone_accent_PP_E2.opus
tune=-6
</region>

<region>
hikey=e3
hivel=127
lokey=d#3
loop_end=225484
loop_mode=loop_continuous
loop_start=72525
loop_xfade=18311
lovel=1
lpc=D8jPQUvKiMLhOYlCMPofwt126UEikbfB8UcdQd/rwcACDfRAFzTvwPpu/0DlyOLAPlujQOlMer9GeRDAhE9mQFMwrsBJWXZAWjnnv1SvOEAScwLADjtbv+b9Vz8ke7A+
lpc_rms=-33.63
offset=419
pitch_keycenter=e3
sample=Baritone_accent_PP_E3.opus
tune=+10
</region>

<region>
hikey=e4
hivel=127
lokey=d#4
loop_end=237046
loop_mode=loop_continuous
loop_start=76244
loop_xfade=19250
lovel=1
lpc=CE3AQWE5gMJdL4ZCAHUrwgtSBkIaleXByWqCQRFNWsHwjpBByNN0wfpXNUE8KRfB6Ku6P16R40ABRlvAxzm1wAUIHEFuGSPBqTYBQdnSqsDnR4y/7aIaQa7kDcEe0StA
lpc_rms=-34.77
offset=787
pitch_keycenter=e4
sample=Baritone_accent_PP_E4.opus
tune=-23
</region>

<region>
hikey=f#2
hivel=127
lokey=f2
loop_end=238803
loop_mode=loop_continuous
loop_start=76809
loop_xfade=19393
lovel=1
lpc=OKs8QhS3BMPFyxRDOi23wixCK0KQW8/BZsHGQZD39cFBw+dBG39qwfGrwT9DGhBAdr9Evu65YkDqTy/BCpOLQV84h8FdnkRBOlZewbGHUkHJ1afAsrmyv1RGTkBEcsC/
lpc_rms=-29.27
offset=536
pitch_keycenter=f#2
sample=Baritone_accent_PP_F#2.opus
tune=-1
</region>

<region>
hikey=f#3
hivel=127
lokey=f3
loop_end=238284
loop_mode=loop_continuous
loop_start=76642
loop_xfade=19351
lovel=1
lpc=Y8tlQrlJHcOwyiNDyau/wpC+a0KyyCzCrvjvQQm/EMJs2R1Cxr7dwS8loUGZ52/BkakDQXQllUAzHMPBDzEFQqEKt8EYLx9BMk6iwG3MZT+dx0JABL5DwIispD/dIS6+
lpc_rms=-29.78
offset=4782
pitch_keycenter=f#3
sample=Baritone_accent_PP_F#3.opus
tune=-11
</region>

<region>
hikey=f#4
hivel=127
lokey=f4
loop_end=233549
loop_mode=loop_continuous
loop_start=75119
loop_xfade=18966
lovel=1
lpc=cKjsQSkRlMIakI5CuDMtwpLpA0LwL6fBWTwLvju4/UBg80ZALdtpwY4WTUFDh+vADLswQBlWz0DL2DzBeoAOQagbh8CQUBc/+aKBP3r9kMAYHdhAXk8Zv/xhhMDMoxRA
lpc_rms=-33.69
pitch_keycenter=f#4
sample=Baritone_accent_PP_F#4.opus
tune=-28
</region>

<region>
hikey=g#2
hivel=127
lokey=g2
loop_end=246570
loop_mode=loop_continuous
loop_start=79307
loop_xfade=20024
lovel=1
lpc=o+BNQkYXEsOQch1DKcDAwg3kjUI1Cm/CpyfnQWoyiMGJU7pBcMK3wcP3hUHK2APBxvyyP7L3XkH7/+zBO7B6QXMdtkCKu9TA4+kPQfY2j8FDr4VBeddBwZaKEkHKqU7A
lpc_rms=-31.04
offset=5145
pitch_keycenter=g#2
sample=Baritone_accent_PP_G#2.opus
tune=-2
</region>

<region>
hikey=g#3
hivel=127
lokey=g3
loop_end=219171
loop_mode=loop_continuous
loop_start=70495
loop_xfade=17799
lovel=1
lpc=dygZQoe/0MKpAtdCEe2EwgggaUJ1X0/C/Yi8QQD4gcHlGa5B4oFwwTSlAEH9pVrAzuIrwDz8bEHrSMLBZ+1yQVZxwsABguhAHrQVQBfSVsEf/B9BzUodwSOuSUGtPK/A
lpc_rms=-33.06
offset=237
pitch_keycenter=g#3
sample=Baritone_accent_PP_G#3.opus
tune=-7
</region>

<region>
hikey=g#4
hivel=127
lokey=g4
loop_end=238582
loop_mode=loop_continuous
loop_start=76738
loop_xfade=19375
lovel=1
lpc=+y6FQqrYLcOcnSxDFrHFwoMOYkKl/9PB1+FSQfTEuMFRi7tBiFqwwVpzykGTAJPBdaYYQU6JU0Arw6zBBt3OQRivgsHacNNAPTlgwEaTFcAMgJhBUaKlwXU0jEB+ICZA
lpc_rms=-27.78
offset=3916
pitch_keycenter=g#4
sample=Baritone_accent_PP_G#4.opus
tune=-28
</region>
</group>

<group>
amp_veltrack=0
group_label=MF
lpc_hicc1=84
lpc_locc1=43

<region>
hikey=a#2
hivel=127
lokey=a2
loop_end=257656
loop_mode=loop_continuous
loop_start=82873
loop_xfade=20924
lovel=1
lpc=+cqWQVV9TMKcHW9CPcIowkOaokGOLxDBATZlQRpm3cFdBddBNpQiwa6Ta8Dj7NtAB4JNwCrcFD8kepHAjPI4QYFvRsHWugJB7urEwDQZx0BPV9bAlW24QJ8bQMByPls/
lpc_rms=-25.51
offset=5368
pitch_keycenter=a#2
sample=Baritone_accent_MF_A#2.opus
tune=-7
</region>

<region>
hikey=a#3
hivel=127
lokey=a3
loop_end=249492
loop_mode=loop_continuous
loop_start=80247
loop_xfade=20261
lovel=1
lpc=tFX3QQFsq8LPEMBCpjSEwqV+L0LI/ebBbf+DQTCcd8HPiZhBBhmjwWcye0HN09XArFaZQPIf2r87p+nARq0TQcvClcA8RDFAKHqLwEom6j9TsJZAswkJwVDaxECYh6+/
lpc_rms=-27.22
offset=2433
pitch_keycenter=a#3
sample=Baritone_accent_MF_A#3.opus
tune=-5
</region>

<region>
hikey=B4
hivel=127
lokey=a4
loop_end=245526
loop_mode=loop_continuous
loop_start=78972
loop_xfade=19939
lovel=1
lpc=eIM2QlFj58Lr/PVCdFSqwnWHWULZKOnB266UQTtdzMGlTgJC5N0MwhAk+EFaq9XBbfTpQciQmcE1UtbAPsuUQeHtQMEnEC1B9s5GwaOtB0EF8knAxpbsPx4cXMBJ0UNA
lpc_rms=-23.63
offset=5278
pitch_keycenter=A#4
sample=Baritone_accent_MF_A#4.opus
tune=+8
</region>

<region>
hivel=127
key=c2
loop_end=243108
loop_mode=loop_continuous
loop_start=78194
loop_xfade=19743
lovel=1
lpc=Z2qgQVsKX8JOBI5Cxh1+wnrDPUJzJ9vBnpMxQV4atsChl9pAih6dwJ86yr/0nqZATrylwO9Wk0AcmKu/DHUHvy57p71MZt0+NcTvv5Z6IkBTNZa/rFYhP16kD75J74m+
lpc_rms=-23.04
offset=6023
sample=Baritone_accent_MF_C2.opus
tune=+9
</region>

<region>
hikey=c3
hivel=127
lokey=b2
loop_end=247630
loop_mode=loop_continuous
loop_start=79648
loop_xfade=20110
lovel=1
lpc=HKCHQaLeNsLa5UhCvX/9wVttkUGTEj/BYoLoQHsxJMEYuFlBQ6PIwH5blMAbYRVBwAgmwSydF0EDyXbAV8PZv1nwQUDcLJu//kjmvw6Jc0BzXFrAH53kPzU5Hb+bfiw+
lpc_rms=-26.82
offset=185
pitch_keycenter=c3
sample=Baritone_accent_MF_C3.opus
tune=-7
</region>

<region>
hikey=c4
hivel=127
lokey=b3
loop_end=255651
loop_mode=loop_continuous
loop_start=82228
loop_xfade=20761
lovel=1
lpc=hzEJQiQqysKqe/JCi+KnwmZlWUIZGi3C4ErjQUhbrcEabdNBxrzDwbDeTEGflYTA0crKP3SFO0COLkrAuyfFwAYKfEFzvYjB7fA1QeV+gcDzvaq+4J6WP449Qb+dRoU+
lpc_rms=-26.34
offset=2782
pitch_keycenter=c4
sample=Baritone_accent_MF_C4.opus
tune=-8
</region>

<region>
hikey=d2
hivel=127
lokey=c#2
loop_end=239322
loop_mode=loop_continuous
loop_start=76976
loop_xfade=19435
lovel=1
lpc=oc/vQby4psKwaMhCK2edwj5dVUJGlfrBHYpFQR2ZNsHeiatBTVplwcGJl8BfuFRBv+pNwX7TS0GCKrvAcpCWwK2QB0HGSwjB4acVQUFiI8GTTQhBaUFqwCk6gb6PQSw/
lpc_rms=-21.94
offset=950
pitch_keycenter=d2
sample=Baritone_accent_MF_D2.opus
</region>

<region>
hikey=d3
hivel=127
lokey=c#3
loop_end=257860
loop_mode=loop_continuous
loop_start=82939
loop_xfade=20941
lovel=1
lpc=QlygQcjbTsKJvmxCLHQ2wt9q5kEIMZHBMbqOQdGKsMF144BBQDD/v83I38CHeB5BDTAawbw3AEHa/MfAWVQAQaOoNsEF0EZBFR4uwT1+wkBGmfO/gtKdPnSGlL8QfrA/
lpc_rms=-25.93
offset=4371
pitch_keycenter=d3
sample=Baritone_accent_MF_D3.opus
tune=+3
</region>

<region>
hikey=d4
hivel=127
lokey=c#4
loop_end=259005
loop_mode=loop_continuous
loop_start=83307
loop_xfade=21034
lovel=1
lpc=UqGKQsgjPcNnCUhDfxb9wu/5qkJyBlDC4/Z4QcR0UcHKoM5BLVEVwmUDAkLqSV7BvXhYQSOP9UBfQDnCg58mQuinqcFFXpBBIuRKwbjAi791ZO1Ay+R2wCd5MMCz8W5A
lpc_rms=-22.15
offset=4047
pitch_keycenter=d4
sample=Baritone_accent_MF_D4.opus
tune=-15
</region>

<region>
hikey=e2
hivel=127
lokey=d#2
loop_end=253593
loop_mode=loop_continuous
loop_start=81566
loop_xfade=20594
lovel=1
lpc=jZYPQtskysKivPBCuKC0wm0jeEKGzjXCE3ADQpjhDcJLjjJCq3ANwnM2ZUED+JPA/HylQGCU278yzhE/r36gv9SnNcDFr+xAlkfvwLqIqT8Na25AvxeVvyEnMMApvvo/
lpc_rms=-21.64
offset=1030
pitch_keycenter=e2
sample=Baritone_accent_MF_E2.opus
tune=-5
</region>

<region>
hikey=e3
hivel=127
lokey=d#3
loop_end=248507
loop_mode=loop_continuous
loop_start=79930
loop_xfade=20181
lovel=1
lpc=sJBzQSMXJ8Llkj5CNH/7wYScg0Fbvv3A9mODQJa71cBcGhJB9/DawKdaK0CpU8c+YAWFv2oGbD5v7WNAd70VwbgCLUGhdsLA/8Klvlpri0BLw6PAF+WFQDBsVsB1RtE/
lpc_rms=-28.89
offset=115
pitch_keycenter=e3
sample=Baritone_accent_MF_E3.opus
tune=+10
</region>

<region>
hikey=e4
hivel=127
lokey=d#4
loop_end=239024
loop_mode=loop_continuous
loop_start=76880
loop_xfade=19411
lovel=1
lpc=aVi9QZ9ResIELX5CBh8Xwr2p4EGub6nBW2ENQQQJR8FbkqtBSiibweMjhEEvkXXB1sD+QFHYaj+FKBtAA08bwUsq7EBpITvAoZtsvv2PVkBOX2LA84vzP9d6uL+yyYo/
lpc_rms=-31.69
offset=337
pitch_keycenter=e4
sample=Baritone_accent_MF_E4.opus
tune=-21
</region>

<region>
hikey=f#2
hivel=127
lokey=f2
loop_end=256226
loop_mode=loop_continuous
loop_start=82413
loop_xfade=20808
lovel=1
lpc=akisQW/PY8K0ZHVCf0MbwhFWukFhcp/Bb6emQSt118EH2uNB92GDwSthLkA0VX++pUcKQAbcoD8LIrfAzQkrQff+UcEjCRhBRLvNwPqAukA32IjAl3wDQI83Yr+vOcU+
lpc_rms=-25.23
offset=4943
pitch_keycenter=f#2
sample=Baritone_accent_MF_F#2.opus
tune=-1
</region>

<region>
hikey=f#3
hivel=127
lokey=f3
loop_end=258668
loop_mode=loop_continuous
loop_start=83199
loop_xfade=21006
lovel=1
lpc=+lrfQdFXncLAjrpCyYqJwpeiMkK3cPjB9ibRQYTTBMKtjxlC/MblwZK0S0EywAHAUO/UvyVnjEDkWw/Bs1haQYrUScHpZAFBS4DLwBO8pUAS4BnAb+QEv5kTcT93IsK8
lpc_rms=-25.43
offset=5631
pitch_keycenter=f#3
sample=Baritone_accent_MF_F#3.opus
tune=-13
</region>

<region>
hikey=f#4
hivel=127
lokey=f4
loop_end=240753
loop_mode=loop_continuous
loop_start=77436
loop_xfade=19551
lovel=1
lpc=h9GwQcSGZMJbtGxCNjobwrGp20GwbGbB5dTtPw+8nsDmTjhBNz5GwbuvPUEfTy7BWj7AQCYdW0DonjHBxZEwQRW9g8A46GLAyL3qQLE5CcFC8q1AKN8JQKGHh8B/Hsw/
lpc_rms=-28.24
offset=409
pitch_keycenter=f#4
sample=Baritone_accent_MF_F#4.opus
tune=-37
</region>

<region>
hikey=g#2
hivel=127
lokey=g2
loop_end=246937
loop_mode=loop_continuous
loop_start=79425
loop_xfade=20054
lovel=1
lpc=lX+GQfa1O8L1vWhC53s5wsR+4UGTalfBWiIWQSo3esEReI5BMvExwS3xWUAV024/wsWSvwQ+xz/FarPA7FYfQZGdAsFMhztAhuGNv+9u8D/NxDzA8/BQQNGzCsBTXTU/
lpc_rms=-25.83
offset=596
pitch_keycenter=g#2
sample=Baritone_accent_MF_G#2.opus
tune=+3
</region>

<region>
hikey=g#3
hivel=127
lokey=g3
loop_end=279309
loop_mode=loop_continuous
loop_start=89838
loop_xfade=22682
lovel=1
lpc=aqq2QfCWe8KVJYxCrWpBwv07GULaxQ7CmVHhQdEN0cEVSNhBdwGewVotzkCPSa8/Z1wAwGzICUGd5X3BHLM1QcnyqsCtr7BApkCDwOnrIj9WlKa+xRumPVPpkz8QsfK+
lpc_rms=-27.99
offset=4100
pitch_keycenter=g#3
sample=Baritone_accent_MF_G#3.opus
tune=-14
</region>

<region>
hikey=g#4
hivel=127
lokey=g4
loop_end=240933
loop_mode=loop_continuous
loop_start=77494
loop_xfade=19566
lovel=1
lpc=ExBVQrNVEcNe9R9DJtrZwhGLikI51f7B3dLdQFDej8ENehZCRDE8wgZ3OkL+vATC/LU1QbTrLUEOmtXB53frQUSZksEm7YJAGK3Xv2FkhEBu+nRAUd+lwNfohMAEgpdA
lpc_rms=-24.94
offset=923
pitch_keycenter=g#4
sample=Baritone_accent_MF_G#4.opus
tune=-36
</region>
</group>

<group>
amp_veltrack=0
group_label=FF
lpc_hicc1=127
lpc_locc1=85

<region>
hikey=a#2
hivel=127
lokey=a2
loop_end=257807
loop_mode=loop_continuous
loop_start=82922
loop_xfade=20936
lovel=1
lpc=LMhUQdxPCsL2myBCP9PtwfPRhEEflRvBkIo8QU5QmsE8/ZdBfX8DwRaYoj6M5RY+ck0GP4j4Lj+QoibA8FW9QKRB0cDu0URAUvsTwMoLnUD5b8HA6FCaQA+9PsDKQ48/
lpc_rms=-23.05
offset=525
pitch_keycenter=a#2
sample=Baritone_accent_FF_A#2.opus
tune=-3
</region>

<region>
hikey=a#3
hivel=127
lokey=a3
loop_end=276571
loop_mode=loop_continuous
loop_start=88957
loop_xfade=22460
lovel=1
lpc=fR9OQQVO/MHd3PxB0NSRweqY60BEUnPAYR7yQDI/OsHw0dtA1ZkCPuoNYsDjSKBAvUwnwFCG7D/ucHjAHN5RQOvenL+G3us/GyRWwO9mOEC0Yt6/9/sDvrbPKT8+N8M8
lpc_rms=-24.03
offset=2011
pitch_keycenter=a#3
sample=Baritone_accent_FF_A#3.opus
tune=+6
</region>

<region>
hikey=B4
hivel=127
lokey=a4
loop_end=298926
loop_mode=loop_continuous
loop_start=96147
loop_xfade=24276
lovel=1
lpc=Ae8mQTW+yMEpwPZBD0HmwYeFp0EZPzXBoHfVQN0aycAHjJhAK0E6wJRJKkDpS4HArAmwQHL6jcCyBxs/MfWDQPH2ssAAxaNA7L6mwLwXqkDe4qLAfeyXQBn5T8A12q0/
lpc_rms=-18.07
offset=5804
pitch_keycenter=A#4
sample=Baritone_accent_FF_A#4.opus
tune=+37
</region>

<region>
hivel=127
key=c2
loop_end=274527
loop_mode=loop_continuous
loop_start=88300
loop_xfade=22294
lovel=1
lpc=WSU6QRK62MHCUd1B52OfwfETPkGNcJvAjLrKP1SgPMB2EphAacsvwM2/0L8GqjxAlpNovxEsub/t+BNASCGwPvigJcBAUVFAuJ5pwO/s4j/v2wU/FtR8Prmzg78MZ4Y+
lpc_rms=-18.80
offset=4679
sample=Baritone_accent_FF_C2.opus
tune=+5
</region>

<region>
hikey=c3
hivel=127
lokey=b2
loop_end=276629
loop_mode=loop_continuous
loop_start=88976
loop_xfade=22465
lovel=1
lpc=QmA6QSzD+8FKVhJC7NHJwXYBX0HZdg3BzXECQSyZJsEK8g1BHjv/v/0xJMBQmkdA8VqjwLrH2EDAH2LAmU+Kv+kWMkCz06+/xTLav7NuOECA+F+/mCNCv/Tnxj50Wwo+
lpc_rms=-26.18
offset=1929
pitch_keycenter=c3
sample=Baritone_accent_FF_C3.opus
tune=+1
</region>

<region>
hikey=c4
hivel=127
lokey=b3
loop_end=264477
loop_mode=loop_continuous
loop_start=85067
loop_xfade=21478
lovel=1
lpc=NwY2QVx968H0BgFCu4unwZwAPkFVOOzAaPCbQNaW1sAFUuRAhbjsv35nQMAgLUJAdzitv+OmRb4wBShAgCaFwEpSokDGuKTANjBQQFG3fL+MegW+6oGXP5hr0r+xlEY/
lpc_rms=-22.85
offset=2558
pitch_keycenter=c4
sample=Baritone_accent_FF_C4.opus
tune=-2
</region>

<region>
hikey=d2
hivel=127
lokey=c#2
loop_end=281897
loop_mode=loop_continuous
loop_start=90670
loop_xfade=22893
lovel=1
lpc=h0BnQcuaD8JyJSNCtnkEwnZcsUEcI0XBIm/SQAxO4cDojBtB0DkJwRkOnUBaa8O/ltd6v5tFI0DKAhPA0xEaQKqxMsDbqRBA03ADwDzeuT8HwNm+Y3WBP4jKzr9PEDw/
lpc_rms=-20.37
offset=4078
pitch_keycenter=d2
sample=Baritone_accent_FF_D2.opus
tune=-1
</region>

<region>
hikey=d3
hivel=127
lokey=c#3
loop_end=277839
loop_mode=loop_continuous
loop_start=89365
loop_xfade=22563
lovel=1
lpc=18xFQbSk+sFewxJCJXzlwa27hUGvF/3A+h/UQEIqPMGGUjtBCWiUwOUCwT2xW8q9srQjPwwwAL9j48g9fI0dQNK/YsBuWeo/ol8LwFpUdEDiEJHAJriLQLe6fcBXQwNA
lpc_rms=-24.26
pitch_keycenter=d3
sample=Baritone_accent_FF_D3.opus
tune=+4
</region>

<region>
hikey=d4
hivel=127
lokey=c#4
loop_end=265117
loop_mode=loop_continuous
loop_start=85273
loop_xfade=21530
lovel=1
lpc=5Bx1QY/JGsJn9CtCZbr5weR3jEFfdBfB6kM4QQdEpcHLNq1B4LYuwdfr7T9ZYba9XJ6DP68Me7/VQh4+1QOJQBzL4cCNG2xA8++8v9YCbj/SDqm+PNebP0SBP8AdggZA
lpc_rms=-19.42
offset=2814
pitch_keycenter=d4
sample=Baritone_accent_FF_D4.opus
tune=-7
</region>

<region>
hikey=e2
hivel=127
lokey=d#2
loop_end=236061
loop_mode=loop_continuous
loop_start=75927
loop_xfade=19170
lovel=1
lpc=1KxsQY61GMKRyjNCwR8Rwok/wEFBiVnBO6EIQSkZKsEjeUlBJysPwcg2gEAlLsa/NXcCv5vDXUBIF4rAKnCYQPFecsArO1Y/N+NOPxb+vr/IrgNAuqcGv6nJpr89hlo/
lpc_rms=-19.21
offset=3375
pitch_keycenter=e2
sample=Baritone_accent_FF_E2.opus
</region>

<region>
hikey=e3
hivel=127
lokey=d#3
loop_end=241528
loop_mode=loop_continuous
loop_start=77686
loop_xfade=19614
lovel=1
lpc=olgSQcRmssHloK1BU4AxwTrmqUBsvpnAGvetQEsk5sCmzLNAQUQwPz2UicCBOSNAIEOsv5rthj9AHC5AYaqrwMh5a0Aib/y/jTaxP22mYr+hq8s/lhUbwFy2rj9bmam9
lpc_rms=-26.54
pitch_keycenter=e3
sample=Baritone_accent_FF_E3.opus
tune=+3
</region>

<region>
hikey=e4
hivel=127
lokey=d#4
loop_end=251823
loop_mode=loop_continuous
loop_start=80997
loop_xfade=20450
lovel=1
lpc=hX3tQMXYhcHUBIVBMVc5wUd3D0EpAuDAJYulQAHeysDlr7dAx3MDwO70Yj1BqI49pSkNv+WpJD5Co+o/t/GyvyDVBb9QXpo/sZOAv6TFXj2s5Ns+bAFfvORJRb82Xjo/
lpc_rms=-24.10
offset=85
pitch_keycenter=e4
sample=Baritone_accent_FF_E4.opus
tune=-19
</region>

<region>
hikey=f#2
hivel=127
lokey=f2
loop_end=250576
loop_mode=loop_continuous
loop_start=80596
loop_xfade=20349
lovel=1
lpc=C9dNQYfKA8KUXRdC0abiwcoih0GWlCnBd+4mQYTdacHlsG9Bx/cJwYSGL0ANtZa/gk+jvv69bkCAgMbAziQHQRpC/sBMP4JACsj/vzsANUCWI1DAiic2QG5NIsCgLZQ/
lpc_rms=-22.67
offset=4142
pitch_keycenter=f#2
sample=Baritone_accent_FF_F#2.opus
tune=-3
</region>

<region>
hikey=f#3
hivel=127
lokey=f3
loop_end=234804
loop_mode=loop_continuous
loop_start=75523
loop_xfade=19068
lovel=1
lpc=+T5/QTXIJcJBDTdCTgTxwaYYaUEIH/3AOhIrQV45lMHFGopBEBpYwMhPCcGN0w9B5YhywHXBiD9l8Ni/t1/IQHowDsFy18FAbgA2wN6yyT+KDWK/hyxJP8benb9T4j8/
lpc_rms=-21.58
offset=3147
pitch_keycenter=f#3
sample=Baritone_accent_FF_F#3.opus
tune=-7
</region>

<region>
hikey=f#4
hivel=127
lokey=f4
loop_end=271848
loop_mode=loop_continuous
loop_start=87438
loop_xfade=22077
lovel=1
lpc=skXXQFdgfsG4Q5NBrk96wcJWOkFEje7Asl6nQPrFzMCWldNA8+eZwOwTU0DjfCDAJFCiP5Iiez6u7MC/8MxEQMXkR8D/jwVAQK/pv6Jq9D/JWwzAkhUsQO+nE8D8NoU/
lpc_rms=-23.56
offset=59
pitch_keycenter=f#4
sample=Baritone_accent_FF_F#4.opus
tune=-31
</region>

<region>
hikey=g#2
hivel=127
lokey=g2
loop_end=247588
loop_mode=loop_continuous
loop_start=79635
loop_xfade=20106
lovel=1
lpc=hXErQU2T0MEV7eRBO8yvwRRyZ0GN1hHBbGYKQRD8TcGJ+FtBztIMwZsOaEC+UlO/misLv1h81z9ZKizAozmWQGgmlMBi3xZAbAkFwI5QLkB81QzAZMj8P/ft9r/OIEk/
lpc_rms=-23.49
offset=4362
pitch_keycenter=g#2
sample=Baritone_accent_FF_G#2.opus
tune=+6
</region>

<region>
hikey=g#3
hivel=127
lokey=g3
loop_end=284214
loop_mode=loop_continuous
loop_start=91415
loop_xfade=23081
lovel=1
lpc=epBgQTYXC8IBaRJCFdO4wTAQOUEdVe7AeIAxQcz/kcHiwYdBuHTLwPpVTsDtgLZAtLG4v5mC3b9iHb2+fUaYQK4Pq8BvH2RAKyMDwI0Lqj4JXac+apkHP1nIo7/8kFc/
lpc_rms=-24.59
offset=4499
pitch_keycenter=g#3
sample=Baritone_accent_FF_G#3.opus
tune=+3
</region>

<region>
hikey=g#4
hivel=127
lokey=g4
loop_end=255167
loop_mode=loop_continuous
loop_start=82072
loop_xfade=20722
lovel=1
lpc=8pRQQf39BsKfJR9CVW0Bwqwtu0FZXVTBvB6sQIVtusCL9hpBP4M+wTx0RkEXFx7BosU9QGd4nkCCkw/Bd9cZQXV878C+a0tAfXbbvx77FUCwoiy/qRAePvZbi7+hTnI/
lpc_rms=-19.53
offset=4377
pitch_keycenter=g#4
sample=Baritone_accent_FF_G#4.opus
tune=-37
</region>
</group>